<?xml version="1.0" encoding="utf-8"?>
<!-- Generator: Adobe Illustrator 27.4.0, SVG Export Plug-In . SVG Version: 6.00 Build 0)  -->
<svg version="1.1" id="Layer_1" xmlns="http://www.w3.org/2000/svg" xmlns:xlink="http://www.w3.org/1999/xlink" x="0px" y="0px"
	 viewBox="0 0 775.7 388.4" style="enable-background:new 0 0 775.7 388.4;" xml:space="preserve">
<style type="text/css">
	.st0{fill:#EC1C24;stroke:#EC1C24;}
	.st1{fill:#2D4199;}
	.st2{fill:#FFFFFF;}
</style>
<g>
	<rect x="0" y="0" class="st0" width="775.7" height="388.4"/>
</g>
<g>
	<polygon class="st1" points="33.4,189.2 386.8,18.7 743.6,192.6 386.8,367.7 	"/>
	<path class="st2" d="M386.8,373.3l-2.2-1.1L22.1,189.1L386.8,13.1l2.2,1.1l366,178.4L386.8,373.3z M44.7,189.3l342.1,172.8
		l345.4-169.5L386.8,24.3L44.7,189.3z"/>
</g>
<g>
	<path class="st2" d="M228.5,172.4h-28.2v-7c0-3.3-0.4-5.4-1.1-6.3c-0.7-0.9-1.9-1.3-3.6-1.3c-1.8,0-3.2,0.6-4.1,1.8
		c-0.9,1.2-1.4,3-1.4,5.5c0,3.2,0.5,5.6,1.6,7.2c1,1.6,3.9,3.5,8.6,5.8c13.5,6.5,22,11.9,25.5,16c3.5,4.2,5.3,10.9,5.3,20.2
		c0,6.8-1,11.7-2.9,14.9c-1.9,3.2-5.7,5.9-11.3,8.1c-5.6,2.2-12.1,3.3-19.5,3.3c-8.1,0-15.1-1.3-20.8-3.8c-5.7-2.5-9.5-5.7-11.3-9.6
		c-1.8-3.9-2.7-9.4-2.7-16.5v-6.2h28.2v11.5c0,3.6,0.4,5.8,1.2,6.9c0.8,1,2.2,1.5,4.2,1.5c2,0,3.5-0.6,4.5-1.9
		c1-1.3,1.5-3.2,1.5-5.7c0-5.6-0.9-9.2-2.8-11c-1.9-1.7-6.7-4.6-14.2-8.6c-7.5-4.1-12.5-7-15-8.8c-2.5-1.8-4.5-4.4-6.1-7.6
		c-1.6-3.2-2.4-7.4-2.4-12.4c0-7.3,1.1-12.6,3.4-15.9c2.3-3.4,6-6,11.1-7.9c5.1-1.9,11.2-2.8,18.5-2.8c7.9,0,14.6,1,20.2,3.1
		c5.6,2.1,9.2,4.7,11,7.8c1.8,3.1,2.7,8.5,2.7,16V172.4z"/>
	<path class="st2" d="M301.7,143.7v19h-18v75.9h-30.4v-75.9h-18v-19H301.7z"/>
	<path class="st2" d="M308.6,143.7h50.6v19H339v18h19v18h-19v20.9h22.3v19h-52.6V143.7z"/>
	<path class="st2" d="M440.9,185h-30.4v-16.5c0-4.8-0.3-7.8-1-9c-0.6-1.2-2.1-1.8-4.3-1.8c-2.5,0-4.1,0.7-4.8,2.2
		c-0.7,1.4-1,4.6-1,9.4v44.1c0,4.6,0.3,7.6,1,9c0.7,1.4,2.2,2.1,4.5,2.1c2.3,0,3.7-0.7,4.4-2.1c0.7-1.4,1-4.7,1-9.9v-11.9h30.4v3.7
		c0,9.8-0.9,16.8-2.6,20.9c-1.7,4.1-5.5,7.7-11.3,10.8s-13,4.6-21.6,4.6c-8.9,0-16.2-1.3-22-3.9s-9.6-6.2-11.5-10.9
		s-2.8-11.6-2.8-20.9v-27.7c0-6.8,0.3-12,0.9-15.4c0.6-3.4,2.3-6.7,5.2-9.9c2.9-3.2,6.8-5.7,11.9-7.5c5.1-1.8,10.9-2.7,17.5-2.7
		c8.9,0,16.3,1.4,22.1,4.2c5.8,2.8,9.6,6.3,11.5,10.5c1.8,4.2,2.7,10.7,2.7,19.6V185z"/>
	<path class="st2" d="M521.1,199.3c0,9.5-0.3,16.3-0.8,20.2c-0.6,4-2.3,7.6-5.2,10.9s-6.8,5.8-11.8,7.6c-5,1.8-10.7,2.6-17.3,2.6
		c-6.2,0-11.9-0.8-16.8-2.5c-5-1.7-9-4.2-12-7.5c-3-3.3-4.8-6.9-5.4-10.8c-0.6-3.9-0.9-10.7-0.9-20.5V183c0-9.5,0.3-16.3,0.8-20.2
		c0.6-4,2.3-7.6,5.2-10.9c2.9-3.3,6.8-5.8,11.8-7.6c5-1.8,10.7-2.6,17.3-2.6c6.2,0,11.9,0.8,16.8,2.5c5,1.7,9,4.2,12,7.5
		c3,3.3,4.8,6.9,5.4,10.8c0.6,3.9,0.9,10.7,0.9,20.5V199.3z M490.8,168.1c0-4.4-0.3-7.2-0.9-8.5c-0.6-1.2-1.8-1.8-3.7-1.8
		c-1.6,0-2.8,0.5-3.6,1.5c-0.8,1-1.3,3.9-1.3,8.8v44.3c0,5.5,0.3,8.9,0.8,10.2c0.6,1.3,1.8,1.9,3.9,1.9c2.1,0,3.4-0.7,4-2.2
		c0.6-1.5,0.9-5,0.9-10.6V168.1z"/>
	<path class="st2" d="M600.2,143.7v94.9h-26.6l-15.8-43.1v43.1h-25.4v-94.9h25.4l17,42.7v-42.7H600.2z"/>
</g>
</svg>
